:SAMPLES-PER-SECOND 30
:FULLY-SPECIFIED
:DEGREES
583
root  -31.6732 38.5799 26.6123 172.108 -33.3182 -179.552
RightUpLeg  -3.66934 -13.8917 -3.50371
RightLeg  29.5819 0.27724 -0.0857724
RightFoot  -17.8639 -0.211346 -1.5848
RightToes  1.33877e-009 0 -3.6325e-017
Spine  17.108 -4.6306 13.3708
Spine1  13.3567 -2.92484 0.764096
HEad  -22.9681 26.5542 -23.8896
LeftShoulder1  0.50125 2.02704 -27.7913
LeftArm  -15.2205 -11.8236 -32.4255
LeftForeArm  18.0875 -71.358 -34.8082
LeftHand  -0.00258581 0.188245 0.0289491
RightShoulder  -0.344714 -4.58576 24.7989
RightArm  -13.0715 -4.64158 43.9344
RightForeArm  121.258 70.6351 145.667
RightHand  -0.254716 0.324318 -5.24201
LeftUpLeg  -24.043 11.8064 4.33007
LeftLeg  45.9616 -9.85571 -10.3854
LeftFoot  -4.9507 0.720796 -12.3504
LeftToes  -1.45701e-009 4.75788e-011 -4.21586e-011
584
root  -32.1767 38.8003 26.3008 172.551 -34.5048 179.782
RightUpLeg  -1.48998 -14.5588 -5.00811
RightLeg  27.3385 0.274232 -0.0954503
RightFoot  -17.6766 -0.147453 -0.502127
RightToes  1.33877e-009 0 -3.6325e-017
Spine  16.6353 -4.31945 13.2884
Spine1  13.1136 -2.53495 0.0300912
HEad  -23.1864 26.835 -23.9022
LeftShoulder1  0.509225 2.01809 -28.1386
LeftArm  -15.8074 -10.6335 -32.0115
LeftForeArm  17.5552 -71.0396 -34.0727
LeftHand  0.0268842 0.314766 -0.656978
RightShoulder  -0.3556 -4.6073 25.1876
RightArm  -12.117 -4.87528 44.6815
RightForeArm  121.888 70.6375 145.748
RightHand  -0.258304 0.619734 -5.07788
LeftUpLeg  -24.4144 13.5376 3.92844
LeftLeg  41.8781 -8.04159 -7.29468
LeftFoot  -5.41048 0.621319 -11.3356
LeftToes  -1.45701e-009 4.75788e-011 -4.21586e-011
585
root  -32.6755 38.9597 25.9449 173.034 -35.8527 179.801
RightUpLeg  0.284598 -15.2002 -5.66142
RightLeg  25.1339 -0.0830669 -0.249902
RightFoot  -17.4114 -0.103101 0.277057
RightToes  1.33877e-009 0 -3.6325e-017
Spine  15.5296 -3.88316 13.3169
Spine1  13.2559 -2.27422 -0.0562945
HEad  -23.502 26.6516 -24.2622
LeftShoulder1  0.534125 1.95199 -28.2888
LeftArm  -15.8512 -10.1574 -30.8469
LeftForeArm  15.8108 -70.4835 -33.0098
LeftHand  0.0170512 0.288781 -0.432829
RightShoulder  -0.315087 -4.48209 25.0712
RightArm  -10.8737 -4.39363 45.2751
RightForeArm  121.45 70.9748 145.042
RightHand  -0.235063 -0.183091 -5.23188
LeftUpLeg  -25.1015 16.0491 3.86775
LeftLeg  36.4291 -6.10616 -4.48462
LeftFoot  -5.4853 0.511853 -9.36546
LeftToes  -1.45701e-009 4.75788e-011 -4.21586e-011
586
root  -33.2061 39.0585 25.577 172.853 -37.6169 179.753
RightUpLeg  2.78698 -15.2341 -6.46842
RightLeg  23.2725 -1.40169 -0.679976
RightFoot  -17.2544 -0.0723581 0.857655
RightToes  1.33877e-009 0 -3.6325e-017
Spine  15.1865 -3.62377 12.4471
Spine1  13.4537 -2.43884 0.74156
HEad  -23.4111 26.0497 -23.7702
LeftShoulder1  0.548751 1.91258 -28.3605
LeftArm  -16.1328 -9.86051 -29.6072
LeftForeArm  14.5735 -69.8568 -31.7824
LeftHand  -0.00166092 0.169857 0.0179804
RightShoulder  -0.283693 -4.38478 24.9757
RightArm  -9.68295 -2.36918 46.2257
RightForeArm  118.754 71.9903 142.558
RightHand  -0.319295 0.518938 -6.35888
LeftUpLeg  -24.6776 18.1954 3.58694
LeftLeg  30.0871 -3.69928 -1.97477
LeftFoot  -5.18084 0.441465 -7.6182
LeftToes  -1.45701e-009 4.75788e-011 -4.21586e-011
587
root  -33.7858 39.0786 25.1711 172.337 -39.5887 -179.612
RightUpLeg  5.22352 -15.152 -6.62845
RightLeg  21.6377 -3.1298 -1.05522
RightFoot  -17.3299 -0.0357174 1.56133
RightToes  1.33877e-009 0 -3.6325e-017
Spine  14.8339 -3.54384 12.6039
Spine1  13.2485 -2.38121 0.628812
HEad  -22.9643 25.1688 -22.8583
LeftShoulder1  0.618679 1.68351 -27.8624
LeftArm  -15.9162 -9.76547 -28.3957
LeftForeArm  12.618 -69.0489 -30.4082
LeftHand  -0.00474597 0.359374 0.0648361
RightShoulder  -0.295086 -4.41436 25.2205
RightArm  -8.46737 0.0297741 46.9165
RightForeArm  114.69 73.279 138.84
RightHand  -0.372582 1.04592 -6.84838
LeftUpLeg  -24.0728 20.2672 3.52292
LeftLeg  23.5605 -1.47175 -0.370741
LeftFoot  -4.77126 0.407134 -6.56915
LeftToes  -1.45701e-009 4.75788e-011 -4.21586e-011
588
root  -34.4765 39.0619 24.7121 171.692 -41.6644 -179.051
RightUpLeg  8.08989 -15.3032 -7.13654
RightLeg  20.0341 -4.74258 -1.18147
RightFoot  -17.5181 0.00638598 2.31525
RightToes  1.33877e-009 0 -3.6325e-017
Spine  13.9213 -3.47069 12.7861
Spine1  13.7908 -2.27066 0.210502
HEad  -22.5799 24.6667 -21.7292
LeftShoulder1  0.675344 1.50188 -27.6032
LeftArm  -15.7613 -10.1291 -27.3213
LeftForeArm  9.86164 -67.9667 -28.7854
LeftHand  -0.0157439 0.277669 0.336133
RightShoulder  -0.271332 -4.33846 25.1315
RightArm  -7.37695 2.51345 47.9693
RightForeArm  109.95 74.5362 134.34
RightHand  -0.38198 1.30006 -6.76703
LeftUpLeg  -22.6766 22.0335 3.2987
LeftLeg  17.1346 0.755949 0.532185
LeftFoot  -3.71482 0.451376 -6.45157
LeftToes  -1.45701e-009 4.75788e-011 -4.21586e-011
589
root  -35.2478 38.9388 24.1905 170.953 -43.6609 -178.114
RightUpLeg  10.6995 -15.4648 -7.35068
RightLeg  18.97 -6.19693 -1.18923
RightFoot  -18.0888 0.0572171 3.04813
RightToes  1.33877e-009 0 -3.6325e-017
Spine  12.7617 -3.05346 12.381
Spine1  14.2408 -2.28309 1.15265
HEad  -21.6315 23.6338 -21.2695
LeftShoulder1  0.651031 1.60817 -28.2328
LeftArm  -15.5636 -10.9564 -26.219
LeftForeArm  7.57454 -66.831 -27.205
LeftHand  -0.0111299 -0.118556 0.266616
RightShoulder  -0.180851 -4.07584 23.9882
RightArm  -6.68594 4.96118 49.2102
RightForeArm  103.805 75.9009 128.124
RightHand  -0.391868 1.27255 -6.97395
LeftUpLeg  -21.4275 22.4233 3.80495
LeftLeg  13.0349 4.43864 0.982073
LeftFoot  -2.69438 0.336923 -4.26805
LeftToes  -1.45701e-009 4.75788e-011 -4.21586e-011
590
root  -36.0564 38.7853 23.6317 170.009 -45.6429 -177.306
RightUpLeg  13.7785 -15.1672 -7.48106
RightLeg  17.633 -8.10506 -1.35918
RightFoot  -18.8058 0.148693 4.22648
RightToes  1.33877e-009 0 -3.6325e-017
Spine  12.2174 -2.74455 11.8823
Spine1  14.4309 -1.98586 0.987941
HEad  -20.9265 22.5491 -19.7292
LeftShoulder1  0.68507 1.46065 -27.3856
LeftArm  -15.1632 -11.8622 -25.4844
LeftForeArm  4.83014 -65.8778 -26.1159
LeftHand  -0.0356234 0.415104 0.763108
RightShoulder  -0.160065 -4.00107 23.8287
RightArm  -5.80449 7.59549 49.7569
RightForeArm  95.3832 77.0788 120.269
RightHand  -0.419743 1.00292 -7.75077
LeftUpLeg  -20.2376 20.7065 4.63222
LeftLeg  12.6778 10.7274 2.0488
LeftFoot  -1.90933 0.198433 -2.17519
LeftToes  -1.45701e-009 4.75788e-011 -4.21586e-011
